<?xml version="1.0" encoding="utf-8"?>
<!-- Generator: Adobe Illustrator 23.0.1, SVG Export Plug-In . SVG Version: 6.00 Build 0)  -->
<svg version="1.1" id="Слой_1" xmlns="http://www.w3.org/2000/svg" xmlns:xlink="http://www.w3.org/1999/xlink" x="0px" y="0px"
	 viewBox="0 0 862.2 1252.1" style="enable-background:new 0 0 862.2 1252.1;" xml:space="preserve">
<style type="text/css">
	.st0{fill:none;stroke:#000000;stroke-width:5;stroke-miterlimit:10;}
	.st1{fill:#FFFFFF;stroke:#000000;stroke-width:5;stroke-miterlimit:10;}
	.st2{fill:none;stroke:#000000;stroke-width:5;stroke-linecap:round;stroke-miterlimit:10;}
	.st3{fill:#FFCFC9;}
	.st4{fill:#5B5B5B;}
	.st5{fill:none;stroke:#8E8E8E;stroke-width:7;stroke-linecap:round;stroke-miterlimit:10;}
	.st6{fill:none;stroke:#AFAFAF;stroke-width:5;stroke-linecap:round;stroke-miterlimit:10;}
	.st7{fill:#FFC0B7;}
	.st8{stroke:#000000;stroke-miterlimit:10;}
	.st9{stroke:#000000;stroke-width:4;stroke-miterlimit:10;}
	.st10{stroke:#FFFFFF;stroke-width:5;stroke-linecap:round;stroke-miterlimit:10;}
	.st11{fill:none;stroke:#F7B3AF;stroke-width:4;stroke-linecap:round;stroke-miterlimit:10;}
</style>
<g id="Layer_2">
	<g>
		<g id="_2">
			<g id="COMPUTER">
				<path class="st0" d="M48.9,577.3h390.8c2.8,0,5.1,2.3,5.1,5.1v30.1c0,2.8-2.3,5.1-5.1,5.1H236.4v72.6"/>
				<path class="st1" d="M95,35.3L75.6,177.7c-4.9,35.7,0.6,72,15.9,104.6l28.4,60.6c18.9,40.3,51.5,71.7,91.4,88.2l85.8,35.4
					L95,35.3z"/>
				<path class="st0" d="M159.8,577.4H43.2c-26.5,0-45.9-26-39.5-52.8l54-182.7c5-20.8,22.9-35.4,43.5-35.4"/>
				<path class="st1" d="M304.5,474.5L304.5,474.5c-2.3,0-4.3-1.3-5.2-3.4L93.5,31.8c-1.9-4,0.9-8.8,5.2-8.8l0,0
					c2.3,0,4.3,1.3,5.3,3.4l205.8,439.3C311.7,469.8,308.8,474.5,304.5,474.5z"/>
				<circle class="st0" cx="176.1" cy="559.8" r="15"/>
				<path class="st0" d="M161.1,561.8c-0.3-9.2,5.8-16.8,15-17.1l1.5,0c3.9-0.1,7.8,0.3,11.6,1.2L310.9,574"/>
			</g>
			<g id="CHAIR">
				<path class="st0" d="M859.8,425.6l-96.7,356.2c-10.1,37.2-43.8,63-82.3,63H353.4"/>
				<line class="st2" x1="379.8" y1="844.8" x2="643.8" y2="1245.2"/>
				<line class="st2" x1="668.8" y1="844.8" x2="380.8" y2="1249.2"/>
			</g>
			<g id="MAN">
				<g id="LEG">
					<path id="LEG-2" class="st3" d="M384.2,1108.5c0,0-13.7,21-37.6,18.1l-16.1-23.1c16.6-3.6,32.9-8.6,48.6-15.1
						C380.7,1096.1,382.5,1103.1,384.2,1108.5z"/>
					<path id="PANTS" class="st4" d="M724,742.3c-9.7,21.6-41.8,77.8-115.9,80.2c-91.8,2.9-260.6-5.8-260.6-5.8
						s38.6,152.6,39.4,268.2c0,0-30.4,15.4-75.6,22.2c0,0-162-303-129.8-377.1c23.9-55.1,205.9-76.5,288.1-83.5
						C503.9,666.3,617.6,728.4,724,742.3z"/>
					<g id="SHOE">
						<path d="M384.2,1108.5c0,0,16.7,18.3,35.1,32.9c11.7,9.2,7.1,27-2.9,41.9c-14.9,22.4-31.5,43.7-49.6,63.6
							c0,0-25.8,2.7-76.1,0.7c0,0-1.9-17.8,15.9-25.9c40.5-18.4,49.6-67,40-95.1C346.6,1126.6,366.8,1130.2,384.2,1108.5z"/>
						<path class="st5" d="M427.2,1146.6c4.8,10.3-2.4,25.7-9.8,36.7c0,0-27.6,38.4-48.6,64.6l-79.1,0.7"/>
						<path class="st6" d="M341.5,1208.3c0,0-18.3-11.9-5-19.2"/>
						<path class="st6" d="M351.5,1197.3c0,0-22.3-11.9-9-19.2"/>
					</g>
				</g>
				<g id="HEAD">
					<path id="HOOD" class="st4" d="M621.4,238.7c0,0,83.8-23.1,89.7-91.7C712.1,135.4,621.4,238.7,621.4,238.7z"/>
					<g id="NECK">
						<path class="st3" d="M622.4,104.7c0,0,36.2,75.6,69.5,103.9c0,0-53.1,35.3-97.7,35.3c0,0-29.2-51.4-41.3-71.1L622.4,104.7z"/>
						<path class="st7" d="M580.2,219.4c-9.2-16.1-20.8-36-27.3-46.7l52.9-51.8l3.6,7.2C613.2,162.9,603.6,200.7,580.2,219.4z"/>
					</g>
					<path id="HEAD-2" class="st3" d="M610.8,119.8c0,0-0.2,29-11.2,45.1c-13.9,20.2-49.2,42-76.1,38S473.1,62.7,493.3,54.6
						c20.2-8.1,76.5-15.5,93.3,9.4S610.8,119.8,610.8,119.8z"/>
					<g id="HAIR">
						<path class="st8" d="M639,136.6c0,0-11.7,1.9-28.7-5.9c0.5-6.4,0.8-19.4-5.8-23.2c-7.2-4.1-11.3,7.5-12.5,11.8
							c-1.5-1.2-3.1-2.5-4.7-3.8c-28-24.3-20.7-48.2-20.7-48.2s-41.7,24.5-81.4,22.9c-32.9-1.3-49.1-47.4-21.3-61.2
							c0,0-2,12.6,22.2,6.6s19.5-30.7,53.5-35c41.9-5.3,50.5,22.4,50.5,22.4s20-10.6,40.7,8.6C652.8,52.2,624.4,109.3,639,136.6z"/>
						<path class="st9" d="M570.8,62.9c0,0-38.9,31.1-81.3,36.6c-39.8,5.2-57.3-46.2-30.2-64.9"/>
						<path class="st9" d="M586.5,25.2c0,0,13.6-19.4,39.4-8"/>
					</g>
				</g>
				<g id="HOODY">
					<path d="M732.8,743.3c31.2-30.6,70.9-223.3,60.6-346.8c-0.6-14.1-2.7-28-6.2-41.7l0,0c-1.8-8-4.1-15.9-7.1-23.6
						c-9-23-29.6-47-58.2-63.4c-29.2-20.9-67.2-35.3-117.7-26.9c-75.1,12.6-92.5,87.5-96.5,121.6l-0.1-0.1l-20.4,114.5l-148.6,5.6
						v48.6c0,0,122,74.4,208.4,52.8l0.8-0.2c-41,40.1-88.3,56.6-88.3,56.6S603.4,729.7,732.8,743.3z"/>
					<path class="st10" d="M620,427.4c0,0-28.5,143.4-81.4,161.6"/>
					<path d="M621.4,238.7c23.2-3,84.6-42.1,89.7-93.5c0,0,92.4,93.5,58.5,168.2c0,0-18.8-35-59.6-56.3
						C661.3,231.7,621.4,238.7,621.4,238.7z"/>
					<path class="st10" d="M777.8,317.5c0,0-28-37.2-67.8-60.3c-55.7-32.4-124.1-15.4-124.1-15.4"/>
				</g>
				<g id="ARM">
					<path class="st3" d="M339.1,513.9c0,0-14.8,23.3-30.5,20s-30.4-5.7-38.3-1.5c-9.9,5.1-19.6,16.3-26.1,16
						c-7.8-0.2-15.5-1.9-22.6-5c4-8.2,8.5-16.3,13.4-24.1c-5.4,3.5-12.7,10.5-16.7,13.2c-6.4,4.3-10.9-1.8-10.9-1.8
						s11.1-15.7,15.9-19.8c4.6-3.9,21.4-16.1,28.8-17.2c8.8-2.1,52.2-8.4,87.1-10.8L339.1,513.9z"/>
					<path class="st11" d="M229.8,543.6c0,0,19.6-28.7,25.1-30.7c9.6-3.5,22.1-8.2,22.1-8.2"/>
					<path class="st11" d="M239.4,546.2c0,0,17.7-24,23.2-26c9.6-3.5,22.1-8.3,22.1-8.3"/>
				</g>
			</g>
		</g>
	</g>
</g>
</svg>
